<?xml version="1.0" encoding="utf-8"?>
<!-- Generator: Adobe Illustrator 26.0.3, SVG Export Plug-In . SVG Version: 6.00 Build 0)  -->
<svg version="1.1" id="Layer_1" xmlns="http://www.w3.org/2000/svg" xmlns:xlink="http://www.w3.org/1999/xlink" x="0px" y="0px"
	 viewBox="0 0 93.6 93.6" style="enable-background:new 0 0 93.6 93.6;" xml:space="preserve">
<style type="text/css">
	.st0{display:none;}
	.st1{display:inline;fill-rule:evenodd;clip-rule:evenodd;}
	.st2{fill-rule:evenodd;clip-rule:evenodd;fill:#6377EE;}
	.st3{fill:#3B3B3B;}
</style>
<g id="Cluster_00000023254540534695064700000002864832175166013066_" transform="matrix(1.2000000000000002,0,0,1.2000000000000002,292.20000000000005,-340.20000000000005)">
	<path class="st2" d="M-167.5,315.5c-1.1,0-2-0.9-2-2s0.9-2,2-2s2,0.9,2,2S-166.4,315.5-167.5,315.5z M-177.5,353.5
		c-2.2,0-4-1.8-4-4s1.8-4,4-4s4,1.8,4,4S-175.3,353.5-177.5,353.5z M-177.5,335.5c-2.2,0-4-1.8-4-4s1.8-4,4-4s4,1.8,4,4
		S-175.3,335.5-177.5,335.5z M-177.5,317.5c-2.2,0-4-1.8-4-4s1.8-4,4-4s4,1.8,4,4S-175.3,317.5-177.5,317.5z M-177.5,299.5
		c-2.2,0-4-1.8-4-4s1.8-4,4-4s4,1.8,4,4S-175.3,299.5-177.5,299.5z M-194.5,339.5c-3.9,0-7-3.1-7-7s3.1-7,7-7s7,3.1,7,7
		S-190.6,339.5-194.5,339.5z M-194.5,319.5c-3.9,0-7-3.1-7-7s3.1-7,7-7s7,3.1,7,7S-190.6,319.5-194.5,319.5z M-195.5,299.5
		c-2.2,0-4-1.8-4-4s1.8-4,4-4s4,1.8,4,4S-193.3,299.5-195.5,299.5z M-195.5,287.5c-1.1,0-2-0.9-2-2s0.9-2,2-2s2,0.9,2,2
		S-194.4,287.5-195.5,287.5z M-214.5,339.5c-3.9,0-7-3.1-7-7s3.1-7,7-7s7,3.1,7,7S-210.6,339.5-214.5,339.5z M-214.5,319.5
		c-3.9,0-7-3.1-7-7s3.1-7,7-7s7,3.1,7,7S-210.6,319.5-214.5,319.5z M-213.5,299.5c-2.2,0-4-1.8-4-4s1.8-4,4-4s4,1.8,4,4
		S-211.3,299.5-213.5,299.5z M-213.5,287.5c-1.1,0-2-0.9-2-2s0.9-2,2-2s2,0.9,2,2S-212.4,287.5-213.5,287.5z M-231.5,299.5
		c-2.2,0-4-1.8-4-4s1.8-4,4-4s4,1.8,4,4S-229.3,299.5-231.5,299.5z M-231.5,309.5c2.2,0,4,1.8,4,4s-1.8,4-4,4s-4-1.8-4-4
		S-233.7,309.5-231.5,309.5z M-241.5,333.5c-1.1,0-2-0.9-2-2s0.9-2,2-2s2,0.9,2,2S-240.4,333.5-241.5,333.5z M-241.5,315.5
		c-1.1,0-2-0.9-2-2s0.9-2,2-2s2,0.9,2,2S-240.4,315.5-241.5,315.5z M-231.5,327.5c2.2,0,4,1.8,4,4s-1.8,4-4,4s-4-1.8-4-4
		S-233.7,327.5-231.5,327.5z M-231.5,345.5c2.2,0,4,1.8,4,4s-1.8,4-4,4s-4-1.8-4-4S-233.7,345.5-231.5,345.5z M-213.5,345.5
		c2.2,0,4,1.8,4,4s-1.8,4-4,4s-4-1.8-4-4S-215.7,345.5-213.5,345.5z M-213.5,357.5c1.1,0,2,0.9,2,2s-0.9,2-2,2s-2-0.9-2-2
		S-214.6,357.5-213.5,357.5z M-195.5,345.5c2.2,0,4,1.8,4,4s-1.8,4-4,4s-4-1.8-4-4S-197.7,345.5-195.5,345.5z M-195.5,357.5
		c1.1,0,2,0.9,2,2s-0.9,2-2,2s-2-0.9-2-2S-196.6,357.5-195.5,357.5z M-167.5,329.5c1.1,0,2,0.9,2,2s-0.9,2-2,2s-2-0.9-2-2
		S-168.6,329.5-167.5,329.5z"/>
</g>
</svg>
