<?xml version="1.0" encoding="utf-8"?>
<!-- Generator: Adobe Illustrator 26.0.3, SVG Export Plug-In . SVG Version: 6.00 Build 0)  -->
<svg version="1.1" id="Layer_1" xmlns="http://www.w3.org/2000/svg" xmlns:xlink="http://www.w3.org/1999/xlink" x="0px" y="0px"
	 viewBox="0 0 364 93.6" style="enable-background:new 0 0 364 93.6;" xml:space="preserve">
<style type="text/css">
	.st0{display:none;}
	.st1{display:inline;fill-rule:evenodd;clip-rule:evenodd;}
	.st2{fill-rule:evenodd;clip-rule:evenodd;fill:#6377EE;}
	.st3{fill:#3B3B3B;}
</style>
<g id="Arrow" transform="matrix(1,0,0,1,0,0)" class="st0">
	<path class="st1" d="M5-25l177-65l177,65L182-80L5-25z M5,104l177,80l177-85l-177,75L5,104z"/>
</g>
<g>
	<g id="Cluster" transform="matrix(1.2000000000000002,0,0,1.2000000000000002,292.20000000000005,-340.20000000000005)">
		<path class="st2" d="M-167.5,315.5c-1.1,0-2-0.9-2-2s0.9-2,2-2s2,0.9,2,2S-166.4,315.5-167.5,315.5z M-177.5,353.5
			c-2.2,0-4-1.8-4-4s1.8-4,4-4s4,1.8,4,4S-175.3,353.5-177.5,353.5z M-177.5,335.5c-2.2,0-4-1.8-4-4s1.8-4,4-4s4,1.8,4,4
			S-175.3,335.5-177.5,335.5z M-177.5,317.5c-2.2,0-4-1.8-4-4s1.8-4,4-4s4,1.8,4,4S-175.3,317.5-177.5,317.5z M-177.5,299.5
			c-2.2,0-4-1.8-4-4s1.8-4,4-4s4,1.8,4,4S-175.3,299.5-177.5,299.5z M-194.5,339.5c-3.9,0-7-3.1-7-7s3.1-7,7-7s7,3.1,7,7
			S-190.6,339.5-194.5,339.5z M-194.5,319.5c-3.9,0-7-3.1-7-7s3.1-7,7-7s7,3.1,7,7S-190.6,319.5-194.5,319.5z M-195.5,299.5
			c-2.2,0-4-1.8-4-4s1.8-4,4-4s4,1.8,4,4S-193.3,299.5-195.5,299.5z M-195.5,287.5c-1.1,0-2-0.9-2-2s0.9-2,2-2s2,0.9,2,2
			S-194.4,287.5-195.5,287.5z M-214.5,339.5c-3.9,0-7-3.1-7-7s3.1-7,7-7s7,3.1,7,7S-210.6,339.5-214.5,339.5z M-214.5,319.5
			c-3.9,0-7-3.1-7-7s3.1-7,7-7s7,3.1,7,7S-210.6,319.5-214.5,319.5z M-213.5,299.5c-2.2,0-4-1.8-4-4s1.8-4,4-4s4,1.8,4,4
			S-211.3,299.5-213.5,299.5z M-213.5,287.5c-1.1,0-2-0.9-2-2s0.9-2,2-2s2,0.9,2,2S-212.4,287.5-213.5,287.5z M-231.5,299.5
			c-2.2,0-4-1.8-4-4s1.8-4,4-4s4,1.8,4,4S-229.3,299.5-231.5,299.5z M-231.5,309.5c2.2,0,4,1.8,4,4s-1.8,4-4,4s-4-1.8-4-4
			S-233.7,309.5-231.5,309.5z M-241.5,333.5c-1.1,0-2-0.9-2-2s0.9-2,2-2s2,0.9,2,2S-240.4,333.5-241.5,333.5z M-241.5,315.5
			c-1.1,0-2-0.9-2-2s0.9-2,2-2s2,0.9,2,2S-240.4,315.5-241.5,315.5z M-231.5,327.5c2.2,0,4,1.8,4,4s-1.8,4-4,4s-4-1.8-4-4
			S-233.7,327.5-231.5,327.5z M-231.5,345.5c2.2,0,4,1.8,4,4s-1.8,4-4,4s-4-1.8-4-4S-233.7,345.5-231.5,345.5z M-213.5,345.5
			c2.2,0,4,1.8,4,4s-1.8,4-4,4s-4-1.8-4-4S-215.7,345.5-213.5,345.5z M-213.5,357.5c1.1,0,2,0.9,2,2s-0.9,2-2,2s-2-0.9-2-2
			S-214.6,357.5-213.5,357.5z M-195.5,345.5c2.2,0,4,1.8,4,4s-1.8,4-4,4s-4-1.8-4-4S-197.7,345.5-195.5,345.5z M-195.5,357.5
			c1.1,0,2,0.9,2,2s-0.9,2-2,2s-2-0.9-2-2S-196.6,357.5-195.5,357.5z M-167.5,329.5c1.1,0,2,0.9,2,2s-0.9,2-2,2s-2-0.9-2-2
			S-168.6,329.5-167.5,329.5z"/>
	</g>
	<g id="ITGLIDER" transform="matrix(0.8168266285480906,0,0,0.8168266285480906,100.34388389844469,120.97880156916065)">
		<path class="st3" d="M23.3-93.3v-15.5h-6.6v37.3h6.6V-93.3z M64.3-102.7h11.8v-6.1H45.9v6.1H64.3z M57.7-96.6h6.6v25h-6.6
			C57.7-71.6,57.7-96.6,57.7-96.6z M103.9-87.3h13.8v-5.8h-13.8V-87.3z M117.7-82.8l-5.8,0v5.3h-5.7c-2,0-3.8-0.3-5.3-0.9
			C99.3-79,98-79.8,96.8-81c-1.1-1.2-2-2.6-2.6-4.1c-0.6-1.5-0.9-3.2-0.9-5.1c0-1.8,0.3-3.5,0.9-5.1c0.7-1.7,1.5-3,2.6-4.1
			c1.1-1.1,2.5-2.1,4.1-2.7c1.6-0.6,3.3-0.9,5.3-0.9l11.4,0.1v-5.9l-11.4-0.1c-2.9,0-5.6,0.5-8,1.4c-2.4,0.9-4.5,2.2-6.3,3.9
			c-1.7,1.7-3.1,3.6-4.1,5.9c-0.9,2.2-1.4,4.7-1.4,7.3c0,2.7,0.5,5.1,1.4,7.4c1,2.4,2.4,4.4,4.1,5.9c1.6,1.6,3.6,2.9,6.2,4
			c2.5,0.9,5.2,1.4,8,1.4h11.5L117.7-82.8L117.7-82.8z M130-108.8h6.4v31.2H156v5.9H130L130-108.8L130-108.8z M187.3-93.3v-15.5
			h-6.6v37.3h6.6V-93.3z M237.8-82.8c-1,2.4-2.3,4.4-4.1,5.9c-1.8,1.7-3.9,3-6.3,3.9c-2.4,0.9-5.1,1.4-8,1.4h-8.7v-5.9h8.6
			c2,0,3.8-0.3,5.4-0.9c1.6-0.6,2.9-1.5,4.1-2.7s2-2.5,2.7-4.1s0.9-3.3,0.9-5.2c0-1.8-0.3-3.5-0.9-5.1c-0.6-1.6-1.5-2.9-2.7-4
			c-1-1.1-2.4-2-4.1-2.7c-1.7-0.6-3.5-0.9-5.4-0.9h-8.6v-5.9h8.7c2.8,0,5.4,0.5,8,1.5c2.4,0.9,4.5,2.2,6.3,4
			c1.8,1.6,3.1,3.6,4.1,5.9c1,2.4,1.5,4.8,1.5,7.3C239.3-87.5,238.8-85,237.8-82.8L237.8-82.8z M252.1-108.8h27.8v5.9h-27.8
			C252.1-102.8,252.1-108.8,252.1-108.8z M252.1-77.5h27.7v5.9h-27.7V-77.5z M252.1-93.3h25.1v5.9h-25.1L252.1-93.3L252.1-93.3z
			 M322.8-71.6l-10.1-14.1c1.4-0.4,2.6-0.9,3.6-1.5c1.1-0.7,2.1-1.5,2.8-2.4c0.8-1,1.4-2.1,1.8-3.2c0.5-1.2,0.7-2.7,0.7-4.2
			c0-1.8-0.3-3.5-0.9-4.9c-0.6-1.4-1.5-2.6-2.7-3.7c-1.1-1-2.6-1.8-4.4-2.3c-1.8-0.6-3.8-0.9-5.8-0.9h-16.6v5.9h16
			c2.4,0,4.3,0.5,5.7,1.6c1.4,1,2,2.6,2,4.7c0,1.9-0.7,3.4-2,4.5c-1.4,1.1-3.2,1.7-5.6,1.7h-16.1v18.7h6.5v-13h8.2l9.1,13
			L322.8-71.6L322.8-71.6L322.8-71.6z"/>
	</g>
</g>
<text transform="matrix(1 0 0 1 683 294)" class="st0" style="font-family:'MyriadPro-Regular'; font-size:12px;">000000</text>
</svg>
